<mxfile host="Electron" agent="Mozilla/5.0 (Windows NT 10.0; Win64; x64) AppleWebKit/537.36 (KHTML, like Gecko) draw.io/24.7.17 Chrome/128.0.6613.36 Electron/32.0.1 Safari/537.36" version="24.7.17">
  <diagram name="Page-1" id="JqdZ2X9EnypD1NYx4PsK">
    <mxGraphModel dx="1246" dy="533" grid="1" gridSize="10" guides="1" tooltips="1" connect="1" arrows="1" fold="1" page="1" pageScale="1" pageWidth="827" pageHeight="1169" math="0" shadow="0">
      <root>
        <mxCell id="0" />
        <mxCell id="1" parent="0" />
        <mxCell id="3iN7juQdv9RiVzlAzZco-14" value="Weather Disater and Early Warning System" style="rounded=1;whiteSpace=wrap;html=1;fontSize=15;" parent="1" vertex="1">
          <mxGeometry x="180" y="180" width="280" height="30" as="geometry" />
        </mxCell>
        <mxCell id="3iN7juQdv9RiVzlAzZco-23" style="edgeStyle=none;rounded=0;orthogonalLoop=1;jettySize=auto;html=1;entryX=1;entryY=0.25;entryDx=0;entryDy=0;exitX=0.924;exitY=-0.133;exitDx=0;exitDy=0;exitPerimeter=0;fontSize=15;" parent="1" source="i4aCO9MUuGmDaHsPj6hT-1" target="3iN7juQdv9RiVzlAzZco-14" edge="1">
          <mxGeometry relative="1" as="geometry">
            <Array as="points">
              <mxPoint x="599" y="290" />
            </Array>
            <mxPoint x="660" y="340" as="sourcePoint" />
          </mxGeometry>
        </mxCell>
        <mxCell id="3iN7juQdv9RiVzlAzZco-16" value="User" style="shape=umlActor;verticalLabelPosition=bottom;verticalAlign=top;html=1;fontSize=15;" parent="1" vertex="1">
          <mxGeometry x="180" y="430" width="30" height="60" as="geometry" />
        </mxCell>
        <mxCell id="3iN7juQdv9RiVzlAzZco-19" style="edgeStyle=none;rounded=0;orthogonalLoop=1;jettySize=auto;html=1;exitX=0;exitY=0.5;exitDx=0;exitDy=0;entryX=0.25;entryY=0.1;entryDx=0;entryDy=0;entryPerimeter=0;fontSize=15;" parent="1" source="3iN7juQdv9RiVzlAzZco-14" target="3iN7juQdv9RiVzlAzZco-16" edge="1">
          <mxGeometry relative="1" as="geometry">
            <Array as="points">
              <mxPoint x="100" y="290" />
            </Array>
          </mxGeometry>
        </mxCell>
        <mxCell id="3iN7juQdv9RiVzlAzZco-20" style="edgeStyle=none;rounded=0;orthogonalLoop=1;jettySize=auto;html=1;exitX=0.75;exitY=0.1;exitDx=0;exitDy=0;exitPerimeter=0;entryX=0.464;entryY=1.033;entryDx=0;entryDy=0;entryPerimeter=0;fontSize=15;" parent="1" source="3iN7juQdv9RiVzlAzZco-16" target="3iN7juQdv9RiVzlAzZco-14" edge="1">
          <mxGeometry relative="1" as="geometry">
            <Array as="points">
              <mxPoint x="320" y="320" />
            </Array>
          </mxGeometry>
        </mxCell>
        <mxCell id="3iN7juQdv9RiVzlAzZco-22" style="edgeStyle=none;rounded=0;orthogonalLoop=1;jettySize=auto;html=1;exitX=0.75;exitY=1;exitDx=0;exitDy=0;entryX=0.362;entryY=1.05;entryDx=0;entryDy=0;entryPerimeter=0;fontSize=15;" parent="1" source="3iN7juQdv9RiVzlAzZco-14" target="i4aCO9MUuGmDaHsPj6hT-1" edge="1">
          <mxGeometry relative="1" as="geometry">
            <Array as="points">
              <mxPoint x="370" y="300" />
              <mxPoint x="380" y="370" />
              <mxPoint x="440" y="430" />
            </Array>
            <mxPoint x="645" y="400" as="targetPoint" />
          </mxGeometry>
        </mxCell>
        <mxCell id="3iN7juQdv9RiVzlAzZco-26" value="Alert , Notification" style="text;html=1;align=center;verticalAlign=middle;resizable=0;points=[];autosize=1;strokeColor=none;fillColor=none;fontSize=15;" parent="1" vertex="1">
          <mxGeometry x="95" y="263" width="140" height="30" as="geometry" />
        </mxCell>
        <mxCell id="3iN7juQdv9RiVzlAzZco-29" value="Provide Location, Preferences" style="text;html=1;align=center;verticalAlign=middle;resizable=0;points=[];autosize=1;strokeColor=none;fillColor=none;fontSize=15;" parent="1" vertex="1">
          <mxGeometry x="130" y="300" width="220" height="30" as="geometry" />
        </mxCell>
        <mxCell id="3iN7juQdv9RiVzlAzZco-30" value="Request Weather data" style="text;html=1;align=center;verticalAlign=middle;resizable=0;points=[];autosize=1;strokeColor=none;fillColor=none;fontSize=15;" parent="1" vertex="1">
          <mxGeometry x="345" y="310" width="170" height="30" as="geometry" />
        </mxCell>
        <mxCell id="3iN7juQdv9RiVzlAzZco-31" value="Provide Weather data" style="text;html=1;align=center;verticalAlign=middle;resizable=0;points=[];autosize=1;strokeColor=none;fillColor=none;strokeWidth=2;fontSize=15;" parent="1" vertex="1">
          <mxGeometry x="565" y="280" width="170" height="30" as="geometry" />
        </mxCell>
        <mxCell id="i4aCO9MUuGmDaHsPj6hT-1" value="Weather API" style="rounded=0;whiteSpace=wrap;html=1;fontSize=15;" parent="1" vertex="1">
          <mxGeometry x="460" y="470" width="150" height="20" as="geometry" />
        </mxCell>
      </root>
    </mxGraphModel>
  </diagram>
</mxfile>
